<mxfile host="app.diagrams.net" modified="2024-04-18T03:17:47.889Z" agent="Mozilla/5.0 (Windows NT 10.0; Win64; x64) AppleWebKit/537.36 (KHTML, like Gecko) Chrome/123.0.0.0 Safari/537.36 Edg/123.0.0.0" version="24.0.7" etag="Hq20OvZNViz5p6B95y_o" type="github">
  <diagram name="第 1 页" id="ikLzCUvxTCN8PEUle8a8">
    <mxGraphModel>
      <root>
        <mxCell id="0" />
        <mxCell id="1" parent="0" />
      </root>
    </mxGraphModel>
  </diagram>
</mxfile>
